# xmcd
#
# Track frame offsets:
#	150
#	17925
#	36732
#	60172
#	67615
#	86410
#	101562
#	119187
#	138245
#	158932
#	175705
#	189497
#	209185
#	229580
#	249965
#	268485
#	287520
#
# Disc length: 4089 seconds
#
# Revision: 3
# Processed by: cddbd v1.5.2PL0 Copyright (c) Steve Scherf et al.
# Submitted via: EasyCDDAExtractor 15.3.0.1
#
DISCID=f50ff711
DTITLE=Rocio Jurado - Mis Mejores Canciones - 17 Super Exitos
DYEAR=1993
DGENRE=Latin
TTITLE0=Paloma Brava
TTITLE1=Amor De Noche
TTITLE2=Punto De Partida
TTITLE3=Cancion Del Fuego Fatuo
TTITLE4=Donde Estas Amor
TTITLE5=Rocio De Luna Blanca
TTITLE6=Pastora Imperio
TTITLE7=Vibro
TTITLE8=Se Nos Rompio El Amor
TTITLE9=Quien Te Crees Tu
TTITLE10=Compañero Mio
TTITLE11=Volcan De Amor Y Fuego
TTITLE12=Esta Noche Gano Yo
TTITLE13=Eres Unico
TTITLE14=Necesito Estar Sola
TTITLE15=Tan Solo Una Mujer
TTITLE16=Perros Perdidos
EXTD=
EXTT0=
EXTT1=
EXTT2=
EXTT3=
EXTT4=
EXTT5=
EXTT6=
EXTT7=
EXTT8=
EXTT9=
EXTT10=
EXTT11=
EXTT12=
EXTT13=
EXTT14=
EXTT15=
EXTT16=
PLAYORDER=
